<?xml version="1.0" standalone="no"?>
<!DOCTYPE svg PUBLIC "-//W3C//DTD SVG 20010904//EN"
 "http://www.w3.org/TR/2001/REC-SVG-20010904/DTD/svg10.dtd">
<svg version="1.0" xmlns="http://www.w3.org/2000/svg"
 width="900.000000pt" height="900.000000pt" viewBox="0 0 900.000000 900.000000"
 preserveAspectRatio="xMidYMid meet">
<metadata>
Created by potrace 1.11, written by Peter Selinger 2001-2013
</metadata>
<g transform="translate(0.000000,900.000000) scale(0.100000,-0.100000)"
fill="#000000" stroke="none">
<path d="M3786 7900 c-61 -11 -76 -17 -76 -30 0 -22 60 -31 304 -45 717 -43
992 -94 1546 -290 577 -204 831 -332 1030 -522 107 -102 159 -169 252 -325 38
-65 71 -118 73 -118 9 0 -63 147 -103 212 -117 193 -269 343 -473 469 -230
141 -809 381 -1211 503 -215 65 -538 123 -811 145 -147 13 -459 13 -531 1z"/>
<path d="M3195 7821 c-189 -51 -258 -76 -274 -95 -9 -11 3 -28 52 -77 107
-108 136 -235 93 -411 -29 -116 -13 -125 169 -89 50 10 96 16 103 13 20 -7 14
-39 -22 -110 -107 -213 -151 -412 -112 -506 7 -18 40 -55 72 -82 125 -106 147
-131 140 -161 -25 -107 -17 -143 33 -143 56 0 95 73 135 250 77 345 122 815
97 1010 -9 75 -19 103 -85 236 -88 177 -121 215 -189 213 -23 -1 -118 -22
-212 -48z"/>
<path d="M2783 7690 c-84 -18 -108 -37 -270 -220 -231 -261 -316 -325 -688
-512 -281 -141 -362 -192 -417 -262 -49 -62 -98 -161 -98 -199 0 -42 41 -74
113 -88 106 -21 149 -81 237 -334 53 -151 110 -270 218 -449 208 -347 333
-485 606 -671 207 -141 425 -235 547 -238 83 -2 96 8 149 118 49 98 101 271
143 470 26 126 31 172 31 285 0 120 -3 149 -33 265 -45 176 -102 333 -168 462
-30 59 -68 134 -84 165 -73 144 -132 445 -133 678 -1 142 2 163 27 244 18 58
27 111 27 153 0 61 -2 67 -34 99 -19 19 -43 34 -54 34 -11 0 -32 2 -48 4 -16
3 -48 1 -71 -4z"/>
<path d="M6081 7085 c-89 -25 -113 -51 -179 -189 -73 -152 -126 -231 -213
-319 -110 -111 -173 -131 -525 -166 -264 -27 -344 -53 -344 -109 0 -29 26 -47
161 -113 105 -52 135 -73 195 -133 131 -132 203 -287 213 -462 7 -115 18 -137
80 -154 115 -32 402 23 672 129 94 37 99 38 94 17 -91 -394 -171 -652 -260
-832 -73 -147 -134 -222 -210 -254 -52 -22 -143 -27 -178 -9 -12 6 -67 58
-122 116 -89 93 -104 104 -130 101 -22 -2 -31 -9 -33 -26 -5 -34 35 -93 163
-242 135 -157 185 -226 185 -257 0 -55 -76 -7 -305 191 -164 142 -245 184
-245 129 0 -28 62 -99 207 -238 139 -133 213 -229 213 -275 0 -96 -95 -220
-170 -220 -14 0 -113 34 -220 75 -527 202 -706 254 -876 255 -100 0 -90 -33
43 -144 38 -31 77 -69 86 -85 16 -27 15 -30 -32 -123 -53 -102 -77 -190 -67
-244 20 -102 119 -139 498 -184 229 -27 239 -30 305 -97 l55 -55 55 4 c41 4
84 20 176 66 67 34 134 62 149 62 18 0 80 -40 200 -129 287 -213 361 -251 452
-231 28 6 92 31 143 57 67 33 98 44 117 39 14 -3 58 -33 98 -66 238 -197 294
-233 356 -233 49 0 109 31 207 108 112 87 136 98 214 96 36 -1 74 -4 83 -7 28
-8 129 14 185 41 181 89 617 605 797 944 51 95 51 96 50 186 0 107 -26 219
-110 475 -45 139 -58 194 -64 268 l-6 93 -53 53 c-52 52 -53 55 -63 135 -9 66
-7 103 6 189 29 192 25 212 -58 254 -134 68 -276 102 -469 114 l-116 7 -108
-55 c-59 -30 -118 -57 -130 -60 -20 -5 -23 -13 -23 -50 0 -69 37 -197 74 -258
19 -30 37 -71 41 -90 19 -88 46 -157 72 -182 36 -34 109 -55 223 -64 103 -8
113 -13 240 -120 126 -106 228 -238 256 -329 40 -134 -7 -239 -206 -465 -107
-120 -135 -162 -126 -186 13 -35 76 -11 280 110 71 42 145 79 163 82 90 17 54
-18 -270 -263 -499 -375 -758 -533 -891 -541 -62 -4 -64 -3 -116 39 -127 104
-183 238 -210 502 -13 130 -34 230 -77 362 -40 123 -72 192 -140 298 -64 100
-147 259 -179 342 -23 63 -26 79 -21 160 9 144 72 333 155 465 105 168 125
204 149 271 15 45 25 94 25 133 0 74 -18 115 -129 285 -75 114 -75 114 -64
157 26 101 9 174 -64 280 -60 88 -62 101 -30 171 111 238 -63 465 -304 398z
m-387 -851 c9 -8 16 -27 16 -40 0 -68 47 -121 130 -149 46 -15 52 -15 84 0 22
11 49 38 73 76 21 32 43 57 48 56 11 -4 26 -114 18 -134 -13 -33 -183 -90
-231 -78 -32 8 -141 113 -188 181 -33 48 -36 57 -26 79 13 29 52 34 76 9z"/>
<path d="M6874 6382 c-98 -72 -172 -146 -180 -178 -8 -33 27 -86 131 -193 l82
-85 21 90 c48 203 66 411 36 421 -6 2 -47 -23 -90 -55z"/>
<path d="M1337 6383 c-12 -11 -7 -78 9 -134 24 -81 108 -237 158 -295 l44 -50
-20 -45 c-115 -253 -470 -1243 -671 -1874 -197 -615 -272 -894 -286 -1054 -26
-288 44 -623 203 -981 206 -463 540 -846 645 -741 21 21 24 39 41 231 48 548
187 1092 417 1630 41 96 164 357 273 580 109 223 214 448 233 500 102 275 87
463 -50 632 -21 26 -72 86 -114 135 -168 197 -299 389 -407 601 -86 169 -128
280 -192 511 -68 244 -90 291 -158 328 -39 22 -114 37 -125 26z"/>
<path d="M5461 3154 c-264 -126 -876 -367 -1186 -467 -106 -34 -168 -48 -255
-56 -171 -17 -540 -31 -850 -31 -270 0 -499 -12 -521 -26 -40 -24 124 -38 686
-59 545 -20 748 -35 760 -55 9 -14 -27 -50 -147 -143 -148 -115 -183 -150
-174 -173 6 -15 19 -16 136 -10 123 7 132 6 166 -14 19 -12 44 -39 54 -61 53
-102 72 -311 45 -479 -9 -58 -19 -133 -22 -166 -5 -59 -4 -63 21 -79 46 -30
147 3 201 67 39 46 120 219 139 299 20 80 20 196 2 266 -8 28 -33 93 -56 143
-40 86 -42 97 -38 159 8 106 105 323 191 424 31 36 44 42 302 123 375 118 651
201 720 217 32 7 63 20 69 29 25 40 -64 139 -123 137 -14 0 -68 -21 -120 -45z"/>
</g>
</svg>
